<?xml version="1.0" encoding="UTF-8"?>
<svg enable-background="new 0 0 502.74 502.74" version="1.1" viewBox="0 0 502.74 502.74" xml:space="preserve" xmlns="http://www.w3.org/2000/svg">
	<path d="m395.43 251.37c0 0.962-0.018 1.919-0.036 2.876 0.023-0.955 0.036-1.914 0.036-2.876z" fill="none"/>
	<path d="m434.56 175.56c-0.695-1.68-5.984-4.57-20.336-4.57-8.906 0-21.297 1.109-38.25 4.313-38.578 7.281-87.578 22.789-137.97 43.664s-96.008 44.555-128.43 66.688c-37.219 25.398-42.375 38.883-41.25 41.609 1.733 4.199 19.547 7.848 60.63-0.13-1.195-1.927-2.345-3.885-3.449-5.871-0.039-0.07-0.079-0.141-0.118-0.211-0.462-0.834-0.915-1.674-1.361-2.518l-0.231-0.438c-0.417-0.795-0.826-1.595-1.228-2.399l-0.294-0.591c-0.382-0.772-0.758-1.547-1.126-2.327-0.109-0.231-0.217-0.464-0.325-0.696-0.353-0.758-0.701-1.517-1.041-2.282-0.114-0.257-0.225-0.515-0.338-0.772-0.329-0.753-0.656-1.507-0.973-2.267-3e-3 -6e-3 -5e-3 -0.012-8e-3 -0.018 5.518-10.29 33.918-28.665 74.006-48.367 15.792-7.762 33.396-15.729 52.128-23.488 66.279-27.454 124.41-43.083 140-38.382 2.892 7.013 5.251 14.301 7.016 21.819 34.681-23.413 44.685-38.586 42.951-42.766z" fill="#B68057"/>
	<path d="m279.66 110.14c0.924 0.184 1.844 0.379 2.761 0.58-0.917-0.201-1.837-0.396-2.761-0.58z" fill="#FFD042"/>
	<path d="m286.32 111.63c1.041 0.26 2.078 0.53 3.111 0.813-1.032-0.282-2.069-0.553-3.111-0.813z" fill="#FFD042"/>
	<path d="m283.01 110.85c0.98 0.22 1.957 0.45 2.929 0.69-0.973-0.239-1.949-0.471-2.929-0.69z" fill="#FFD042"/>
	<path d="m395.39 254.25c0.019-0.957 0.036-1.915 0.036-2.876 0-0.786-0.022-1.565-0.035-2.348-0.012 8e-3 -0.023 0.015-0.035 0.022-0.051-3.104-0.212-6.178-0.464-9.227 0.015-0.01 0.029-0.019 0.044-0.029-0.604-7.305-1.758-14.452-3.418-21.405 0.031-0.021 0.061-0.042 0.092-0.063-1.766-7.518-4.124-14.807-7.016-21.819-15.586-4.7-73.717 10.929-140 38.382-18.732 7.759-36.336 15.726-52.128 23.488-2.248 10.108-3.443 20.613-3.443 31.398 0 41.168 17.304 78.272 45.001 104.52-25.063-3.021-48.141-12.482-67.54-26.67l-0.036 9e-3c23.819 17.44 53.191 27.745 84.975 27.745 72.008 0 131.67-52.855 142.31-121.88-0.067 0.041-0.133 0.082-0.201 0.122 0.986-6.343 1.691-12.781 1.854-19.36z" fill="#FFD042"/>
	<path d="m336.36 135.08c-13.912-10.177-29.717-17.917-46.79-22.595 17.057 4.682 32.842 12.433 46.744 22.606 0.015-4e-3 0.03-8e-3 0.046-0.011z" fill="#FFD042"/>
	<path d="m272.83 108.96c0.812 0.121 1.619 0.254 2.427 0.388-0.808-0.134-1.615-0.267-2.427-0.388z" fill="#FFD042"/>
	<path d="m269.35 108.48c0.761 0.094 1.519 0.201 2.276 0.308-0.757-0.107-1.514-0.214-2.276-0.308z" fill="#FFD042"/>
	<path d="m265.84 108.08c0.706 0.07 1.407 0.153 2.11 0.233-0.703-0.08-1.405-0.163-2.11-0.233z" fill="#FFD042"/>
	<path d="m262.28 107.78c0.646 0.048 1.289 0.109 1.934 0.166-0.645-0.056-1.288-0.117-1.934-0.166z" fill="#FFD042"/>
	<path d="m255.08 107.42c0.45 0.011 0.898 0.034 1.347 0.05-0.449-0.016-0.897-0.039-1.347-0.05z" fill="#FFD042"/>
	<path d="m258.7 107.55c0.573 0.029 1.142 0.07 1.713 0.105-0.571-0.035-1.141-0.076-1.713-0.105z" fill="#FFD042"/>
	<path d="m276.27 109.51c0.867 0.151 1.73 0.313 2.592 0.479-0.862-0.165-1.725-0.328-2.592-0.479z" fill="#FFD042"/>
	<path d="m128.96 327.13c-1.196-1.927-2.35-3.883-3.456-5.87 1.105 1.987 2.255 3.944 3.449 5.871 3e-3 0 5e-3 0 7e-3 -1e-3z" fill="#FFD042"/>
	<path d="m119.79 309.8c0.34 0.765 0.688 1.524 1.041 2.282-0.353-0.757-0.701-1.517-1.041-2.282z" fill="#FFD042"/>
	<path d="m122.57 315.69c0.402 0.804 0.811 1.603 1.228 2.399-0.417-0.795-0.826-1.595-1.228-2.399z" fill="#FFD042"/>
	<path d="m124.03 318.53c0.446 0.844 0.899 1.684 1.361 2.518-0.462-0.834-0.914-1.674-1.361-2.518z" fill="#FFD042"/>
	<path d="m121.15 312.78c0.368 0.78 0.744 1.555 1.126 2.327-0.382-0.772-0.757-1.548-1.126-2.327z" fill="#FFD042"/>
	<path d="m118.48 306.76c0.317 0.76 0.643 1.514 0.973 2.267-0.33-0.753-0.656-1.508-0.973-2.267z" fill="#FFD042"/>
	<path d="m189.03 289.77c0-10.785 1.195-21.29 3.443-31.398-40.088 19.702-68.488 38.078-74.006 48.367 3e-3 6e-3 5e-3 0.012 8e-3 0.018 0.317 0.76 0.643 1.514 0.973 2.267 0.113 0.257 0.224 0.516 0.338 0.772 0.34 0.765 0.688 1.525 1.041 2.282 0.108 0.232 0.215 0.464 0.325 0.696 0.368 0.78 0.744 1.555 1.126 2.327l0.294 0.591c0.402 0.804 0.811 1.604 1.228 2.399 0.076 0.146 0.154 0.292 0.231 0.438 0.446 0.844 0.899 1.684 1.361 2.518 0.039 0.071 0.079 0.141 0.118 0.211 1.106 1.987 2.26 3.943 3.456 5.87 0.052-0.01 0.101-0.019 0.153-0.029 3.776 6.088 7.995 11.867 12.604 17.303 0.059-0.012 0.117-0.024 0.177-0.037 1.97 2.32 3.965 4.608 6.075 6.797-0.04 9e-3 -0.078 0.017-0.118 0.025 5.762 5.985 12.032 11.477 18.751 16.399-0.039 0.01-0.076 0.018-0.115 0.028 19.399 14.188 42.477 23.649 67.54 26.67-27.699-26.242-45.003-63.346-45.003-104.51z" fill="#DBB246"/>
	<path d="m336.31 135.09c-13.902-10.173-29.687-17.924-46.744-22.606-0.047-0.013-0.094-0.025-0.141-0.038-1.032-0.282-2.069-0.553-3.111-0.813-0.125-0.031-0.25-0.061-0.374-0.091-0.973-0.24-1.949-0.47-2.929-0.69-0.197-0.044-0.394-0.085-0.591-0.128-0.917-0.202-1.837-0.396-2.761-0.58-0.266-0.053-0.533-0.102-0.799-0.153-0.862-0.167-1.725-0.329-2.592-0.479-0.337-0.059-0.676-0.112-1.013-0.168-0.807-0.135-1.615-0.267-2.427-0.388-0.4-0.06-0.802-0.112-1.202-0.168-0.757-0.106-1.515-0.213-2.276-0.308-0.467-0.058-0.936-0.107-1.404-0.161-0.703-0.08-1.404-0.163-2.11-0.233-0.539-0.054-1.08-0.096-1.62-0.144-0.644-0.057-1.287-0.118-1.934-0.166-0.622-0.046-1.247-0.08-1.871-0.118-0.571-0.035-1.14-0.076-1.713-0.105-0.755-0.038-1.514-0.06-2.272-0.086-0.449-0.015-0.897-0.038-1.347-0.05-1.213-0.03-2.429-0.046-3.649-0.046-72.03 0-131.71 52.886-142.32 121.95 33.467-20.203 71.687-39.286 110.29-55.274 40.184-16.648 80.077-29.887 116.91-38.953z" fill="#DBB246"/>
	<path d="m500.45 148.23v-4e-3c-9.359-22.59-43.781-31.23-99.531-25.031-19.884 2.215-41.629 6.243-64.558 11.885-0.015 4e-3 -0.031 8e-3 -0.046 0.011-36.833 9.066-76.726 22.305-116.91 38.951-38.602 15.988-76.822 35.071-110.29 55.274-71.194 42.978-120.85 91.032-106.7 125.2 7.398 17.844 31.414 26.914 68.148 26.914 26.028 0 58.493-4.599 95.893-13.807l0.036-9e-3c0.039-0.01 0.076-0.018 0.115-0.028-6.719-4.922-12.989-10.414-18.751-16.399-27.116 5.97-51.087 9.111-70.179 9.111-25.144 0-41.901-5.37-46.548-16.627-13.104-31.747 75.128-98.287 197.07-148.62 78.701-32.485 152.22-50.281 197.98-50.283h9e-3c25.139 0 41.893 5.371 46.539 16.627 8.173 19.799-23.077 53.132-77.33 87.626 0.013 0.782 0.035 1.562 0.035 2.348 0 0.962-0.013 1.921-0.036 2.876-0.163 6.579-0.868 13.017-1.854 19.361 0.068-0.041 0.133-0.082 0.201-0.122 79.418-48.064 119.31-94.799 106.7-125.26z" fill="#D49E6C"/>
	<path d="m231.25 202.45c-132.22 54.575-201.36 117.26-192.73 138.17 3.063 7.422 17.334 11.68 39.153 11.68 17.928 0 39.741-2.764 64.045-7.897-4.61-5.436-8.828-11.216-12.604-17.303-0.052 0.01-0.101 0.019-0.153 0.029-2e-3 0-4e-3 1e-3 -6e-3 1e-3 -41.083 7.978-58.897 4.329-60.63 0.13-1.125-2.727 4.031-16.211 41.25-41.609 32.422-22.133 78.039-45.813 128.43-66.688s99.39-36.383 137.97-43.664c16.953-3.203 29.344-4.313 38.25-4.313 14.352 0 19.641 2.891 20.336 4.57 1.733 4.18-8.271 19.353-42.949 42.764-0.031 0.021-0.061 0.042-0.092 0.063 1.66 6.953 2.814 14.1 3.418 21.405 51.099-33.256 75.75-62.353 70.39-75.34-3.063-7.422-17.331-11.68-39.144-11.68v-8l-8e-3 8c-46.701 2e-3 -119.57 18.574-194.93 49.678z" fill="#D49E6C"/>
	<path d="m141.9 344.37c-0.059 0.013-0.117 0.024-0.177 0.037-24.305 5.134-46.117 7.897-64.045 7.897-21.818 0-36.089-4.257-39.153-11.68-8.633-20.915 60.511-83.599 192.73-138.17 75.356-31.104 148.22-49.676 194.92-49.678l8e-3 -8h-9e-3c-45.76 2e-3 -119.28 17.798-197.98 50.283-121.94 50.335-210.18 116.88-197.07 148.62 4.647 11.258 21.404 16.627 46.548 16.627 19.092 0 43.063-3.141 70.179-9.111 0.04-9e-3 0.078-0.017 0.118-0.025-2.11-2.19-4.105-4.478-6.075-6.798z" fill="#B68057"/>
		<line x1="426.19" x2="426.19" y1="144.77" y2="144.77" fill="none" stroke-width="0"/>
	<path d="m465.33 164.45c5.361 12.987-19.291 42.084-70.39 75.34-0.015 0.01-0.029 0.019-0.044 0.029 0.252 3.049 0.413 6.124 0.464 9.227 0.012-7e-3 0.023-0.015 0.035-0.022 54.253-34.494 85.502-67.827 77.33-87.626-4.646-11.256-21.4-16.627-46.539-16.627v8c21.813-1e-3 36.081 4.256 39.144 11.679z" fill="#B68057"/>
</svg>
