<?xml version="1.0" encoding="UTF-8"?>
<!DOCTYPE svg  PUBLIC '-//W3C//DTD SVG 1.1//EN'  'http://www.w3.org/Graphics/SVG/1.1/DTD/svg11.dtd'>
<svg width="512px" height="512px" enable-background="new 0 0 587.934 587.935" version="1.1" viewBox="0 0 587.93 587.94" xml:space="preserve" xmlns="http://www.w3.org/2000/svg">
	<g fill="#adb5bd">
		<circle cx="388.43" cy="151.28" r="54.879"/>
		<circle cx="97.565" cy="293.12" r="27.444"/>
		<path d="m49.6 474.85c36.796 0 92.632-9.524 146.51-21.907 24.997 23.858 58.781 38.594 96.065 38.594 68.821 0 125.84-49.954 137.14-115.55 96.333-39.598 170.43-81.08 157.06-123.87-0.086-0.287-0.191-0.574-0.307-0.851-4.504-10.892-18.321-15.75-44.8-15.759-46.828 0-119.88 15.176-122.96 15.816-5.039 1.052-8.481 5.719-8.013 10.844s4.704 9.084 9.85 9.208c32.378 0.765 60.329 7.774 63.686 13.455-3.251 7.411-25.618 20.99-56.046 35.955-14.276-61.764-69.51-107.86-135.62-107.86-76.939 0-139.31 62.367-139.31 139.31 0 20.942 4.752 40.727 13.024 58.542-15.348 2.888-29.567 4.724-41.081 4.724-10.806 0-16.352-1.616-19.077-2.936 0.717-3.299 5.489-14.735 36.452-36.232 2.792-1.807 4.647-4.953 4.647-8.52 0-5.518-4.389-10.146-9.869-10.146h-0.277c-0.334 0-0.66 0.029-0.994 0.067-0.555 0.058-1.1 0.162-1.635 0.306-11.561 2.831-103.53 26.46-127.84 66.861-5.938 9.868-7.621 20.062-5.02 30.304 4.495 17.623 29.788 19.66 48.416 19.66z"/>
	</g>
</svg>
